PathFileType	4	(X/Y/Z)	C:\Users\Basilio\Documents\Thesis Gigler\squatting_fais\c3dfiles\073\SLS_front_pre3\markers_experimental.trc
DataRate	CameraRate	NumFrames	NumMarkers	Units	OrigDataRate	OrigDataStartFrame	OrigNumFrames
200.000000	200.000000	4	61	mm	200.000000	169	1353
Frame#	Time	FHD			LBHD			RBHD			C7			T10			CLAV			LSHO			LUUPA			LMUPA			LDUPA			LLEP			LMEP			LRAD			LUL			LRFIN			RSHO			RUPA1			RMUPA			RDUPA			RLEP			RMEP			RRAD			RUL			RUFIN			LASI			RASI			USACR			LSACR			RSACR			LTHI1			LTHI2			LTHI3			LTHI4			LLFC			LMFC			LTIB1			LTIB2			LTIB3			LTIB4			LLMAL			LMMAL			LHEE			LMT1			LMT2			LMT5			RTHI			RTHI2			RTHI3			RTHI4			RLFC			RMFC			RTIB1			RTIB2			RTIB3			RTIB4			RLMAL			RMMAL			RHEE			RMT1			RMT2			RMT5			
		X1	Y1	Z1	X2	Y2	Z2	X3	Y3	Z3	X4	Y4	Z4	X5	Y5	Z5	X6	Y6	Z6	X7	Y7	Z7	X8	Y8	Z8	X9	Y9	Z9	X10	Y10	Z10	X11	Y11	Z11	X12	Y12	Z12	X13	Y13	Z13	X14	Y14	Z14	X15	Y15	Z15	X16	Y16	Z16	X17	Y17	Z17	X18	Y18	Z18	X19	Y19	Z19	X20	Y20	Z20	X21	Y21	Z21	X22	Y22	Z22	X23	Y23	Z23	X24	Y24	Z24	X25	Y25	Z25	X26	Y26	Z26	X27	Y27	Z27	X28	Y28	Z28	X29	Y29	Z29	X30	Y30	Z30	X31	Y31	Z31	X32	Y32	Z32	X33	Y33	Z33	X34	Y34	Z34	X35	Y35	Z35	X36	Y36	Z36	X37	Y37	Z37	X38	Y38	Z38	X39	Y39	Z39	X40	Y40	Z40	X41	Y41	Z41	X42	Y42	Z42	X43	Y43	Z43	X44	Y44	Z44	X45	Y45	Z45	X46	Y46	Z46	X47	Y47	Z47	X48	Y48	Z48	X49	Y49	Z49	X50	Y50	Z50	X51	Y51	Z51	X52	Y52	Z52	X53	Y53	Z53	X54	Y54	Z54	X55	Y55	Z55	X56	Y56	Z56	X57	Y57	Z57	X58	Y58	Z58	X59	Y59	Z59	X60	Y60	Z60	X61	Y61	Z61	

170	0.845	-239.5821685791016	1696.38818359375	-834.2497558593752	-373.3312377929688	1671.047729492188	-865.5413818359377	-403.8720092773439	1653.563110351563	-733.5144042968751	-436.4199218750001	1545.410400390625	-800.222106933594	-459.3975830078126	1204.689697265625	-799.0279541015627	-308.8217163085938	1467.624877929688	-794.622253417969	-332.8858642578126	1506.80126953125	-945.9082031250002	-241.1834564208985	1429.129272460938	-1030.588256835938	-202.6288452148438	1453.954956054688	-1009.516418457031	-176.4751739501953	1405.25	-1035.382202148438	-71.46505737304689	1386.994995117188	-1033.925048828125	-72.59603881835939	1336.539428710938	-983.3091430664065	181.0511474609375	1445.728271484375	-919.6433715820315	187.2787322998047	1434.41015625	-993.0802001953127	260.6349487304688	1464.101928710938	-912.3067626953127	-335.7449035644532	1501.85009765625	-648.0050659179689	-237.1802062988282	1406.757080078125	-553.0992431640626	-199.6269683837891	1433.029296875	-567.8547363281251	-172.2639465332032	1383.896606445313	-546.9933471679689	-79.37871551513673	1374.671875	-547.5163574218751	-78.7013397216797	1322.252075195313	-611.3589477539064	172.7720031738282	1424.942626953125	-659.9522705078126	181.332260131836	1429.856567382813	-583.8645629882814	259.4527587890626	1455.411254882813	-661.2780151367189	-281.7611999511719	1061.390014648438	-930.5256958007815	-278.4103698730469	1040.505737304688	-677.6419677734376	-467.254364013672	1102.00439453125	-795.3618164062502	-479.3067626953126	1074.544067382813	-825.2092895507815	-481.0852661132814	1068.881958007813	-769.1091308593752	-304.7270812988282	736.8972167968751	-989.8335571289065	-267.1653442382813	662.1162109375001	-973.731140136719	-226.9777832031251	668.0952758789064	-945.1995849609377	-293.6932067871094	609.6148681640626	-968.181091308594	-295.5419311523438	548.3519287109376	-968.9481201171877	-297.3181457519532	542.1006469726564	-831.2842407226565	-264.8664245605469	347.4423828125001	-917.509216308594	-328.8825378417969	312.7780151367188	-966.141296386719	-287.9797668457032	301.6240539550782	-947.8166503906252	-295.9201660156251	224.2592468261719	-912.7564697265627	-372.5756225585938	114.8310089111328	-932.4962158203127	-358.7617492675782	140.638427734375	-850.8125000000002	-434.7774353027345	97.16123962402347	-890.6182861328127	-217.6017150878907	54.45158004760744	-845.8509521484377	-216.2559814453126	49.93905639648439	-884.861511230469	-253.5807037353516	34.32513809204102	-939.417663574219	-361.0227661132813	801.259460449219	-622.1893920898439	-324.5727233886719	745.6981201171876	-624.4161987304689	-291.2209472656251	747.7838134765626	-628.6249389648439	-350.4672851562501	669.4600830078126	-648.9558105468751	-327.4212036132813	522.3906250000001	-670.9649047851564	-328.2505493164063	515.9923706054689	-801.001892089844	-291.6959838867188	362.5396728515626	-766.2803955078126	-313.7794799804688	278.6455383300782	-700.5049438476564	-291.3296203613282	278.2527770996094	-743.8673706054689	-311.4630737304688	234.8425292968751	-776.509948730469	-364.2190551757813	103.6099090576172	-725.2096557617189	-356.3431396484376	129.0332794189453	-811.969177246094	-433.6831970214845	83.21077728271486	-782.2780761718752	-209.3376159667969	55.97035980224611	-789.583435058594	-210.3672637939454	54.18392562866212	-747.9976196289064	-255.3053436279297	35.9950294494629	-701.8850097656251	
171	0.85	-239.8325805664063	1696.253173828125	-833.571960449219	-373.6706848144532	1670.834228515625	-864.8297119140627	-404.0404663085939	1653.432861328125	-732.7881469726564	-436.6165771484376	1545.286376953125	-799.3465576171877	-459.9310607910157	1204.571899414063	-798.1096801757815	-309.7595214843751	1467.185668945313	-794.2071533203127	-333.2433471679688	1506.605102539063	-945.0657348632815	-241.6425018310547	1428.98046875	-1029.998657226563	-203.0800476074219	1453.775268554688	-1008.824951171875	-176.9754486083985	1405.039428710938	-1034.642944335938	-72.01224517822267	1386.776611328125	-1033.326293945313	-73.08217620849611	1336.262084960938	-982.7122192382815	180.7888946533203	1445.33056640625	-919.2927856445315	186.8575744628907	1434.008666992188	-992.6387329101565	260.3549804687501	1463.641357421875	-911.8333740234377	-335.8505859375001	1501.745239257813	-647.3123168945314	-237.2928924560547	1406.60595703125	-552.3402099609376	-199.7871551513672	1432.888305664063	-567.1442260742189	-172.3884429931641	1383.766845703125	-546.1969604492189	-79.47520446777345	1374.558837890625	-546.7097778320314	-78.86087799072267	1322.016235351563	-610.6404418945314	172.4333190917969	1424.438232421875	-659.2777099609376	181.221923828125	1429.475341796875	-583.3183593750001	259.3544921875001	1454.913818359375	-660.8240356445314	-282.6107177734376	1061.3017578125	-930.0731201171877	-278.4609069824219	1040.302368164063	-676.5831909179689	-467.9205627441407	1101.917602539063	-794.5888671875002	-479.8901977539064	1074.481201171875	-824.5149536132815	-481.6527099609376	1068.773315429688	-768.3572387695315	-303.3109741210938	736.8770751953126	-989.248474121094	-265.5491333007813	662.4238891601564	-973.3647460937502	-225.2453155517579	668.5371704101564	-944.8809814453127	-291.5276489257813	609.6614379882814	-967.868591308594	-293.2904357910157	548.4146728515626	-968.652038574219	-295.2117919921876	542.2777099609376	-831.043151855469	-263.5027465820313	347.4311218261719	-917.5332031250002	-327.6765747070313	313.0973510742188	-965.9085693359377	-286.6018371582032	301.6386108398438	-947.7046508789065	-295.0568847656251	224.4375762939454	-912.419860839844	-372.2259216308594	115.4036560058594	-932.3511962890627	-358.4176635742188	141.0760803222657	-850.611999511719	-434.6445617675782	97.53327178955081	-890.268493652344	-217.4774627685547	54.46060943603517	-845.7490844726565	-216.2102355957032	50.00864028930665	-884.7288818359377	-253.6058959960938	34.47968673706055	-939.279724121094	-361.1434631347657	801.0923461914065	-621.7091064453126	-324.6512145996094	745.6009521484376	-623.9948730468751	-291.3133850097657	747.7118530273439	-628.2977294921876	-350.5131225585938	669.2984619140626	-648.6475830078126	-327.3916931152344	522.2611083984376	-670.6357421875001	-328.3090820312501	515.7830810546876	-800.6785278320315	-291.7637939453126	362.4556579589844	-766.1950073242189	-313.6572570800782	278.5598449707032	-700.4627075195314	-291.3058166503907	278.1459960937501	-743.7703857421876	-311.5538330078126	234.7533721923829	-776.395690917969	-364.2200012207032	103.5271453857422	-725.1668701171876	-356.3938598632813	128.9802398681641	-811.9643554687502	-433.7548217773439	83.13146972656251	-782.1635742187502	-209.3688049316407	55.91785049438478	-789.5653076171877	-210.3719024658204	54.17670822143556	-747.9821166992189	-255.3086853027344	35.98563766479493	-701.8659057617189	
172	0.855	-239.8113098144532	1696.1416015625	-832.9715576171877	-373.9413146972657	1670.6982421875	-864.1796875000002	-404.2438049316407	1653.258056640625	-732.0632934570314	-436.8119201660157	1545.189086914063	-798.5630493164065	-460.3836669921876	1204.429809570313	-797.2048950195315	-310.1474914550782	1466.990478515625	-793.5637817382815	-333.5786132812501	1506.390502929688	-944.387145996094	-242.1268005371094	1428.857177734375	-1029.185668945313	-203.4680938720704	1453.675659179688	-1008.169372558594	-177.5448760986328	1404.770629882813	-1034.00439453125	-72.47744750976564	1386.502319335938	-1032.799072265625	-73.51805114746095	1336.02490234375	-982.3052368164065	180.4914703369141	1444.954711914063	-918.8945312500002	186.3041534423828	1433.557373046875	-992.1376953125002	259.9200439453126	1463.08203125	-911.5113525390627	-335.9686279296876	1501.639038085938	-646.5416259765626	-237.3763580322266	1406.514526367188	-551.6840820312501	-199.9376678466797	1432.748046875	-566.5830078125001	-172.5093841552735	1383.7314453125	-545.5029296875001	-79.59786987304689	1374.379028320313	-546.0078125000001	-79.05826568603517	1321.78759765625	-609.9503173828126	172.392578125	1423.825073242188	-658.6647338867189	180.3341064453125	1429.157348632813	-583.1060180664064	259.2743530273438	1454.403442382813	-660.3369140625001	-283.3831787109376	1061.205322265625	-929.7028808593752	-278.8050231933594	1040.066284179688	-676.1519775390626	-468.4213256835939	1101.833984375	-793.9031982421877	-480.5054626464845	1074.376220703125	-823.8016357421877	-482.1879272460939	1068.643920898438	-767.6716308593751	-302.1733703613282	736.8324584960939	-988.965759277344	-263.6056213378907	662.6238403320314	-973.0112304687502	-223.433334350586	668.9342041015626	-944.4615478515627	-289.3202514648438	609.6096801757814	-967.5374755859377	-291.0673828125001	548.4671630859376	-968.4459228515627	-292.3210449218751	542.3982543945314	-830.9121704101565	-261.9152832031251	347.4602355957032	-917.2937011718752	-326.2750854492188	313.5382995605469	-965.533386230469	-285.4113159179688	301.8430175781251	-947.358581542969	-294.1706542968751	224.669662475586	-912.1682128906252	-371.9589843750001	115.9974212646485	-932.1172485351565	-357.7176513671876	141.4596557617188	-850.3035278320315	-434.4456176757814	97.98304748535159	-889.9604492187502	-217.412094116211	54.49414062500001	-845.6135253906252	-216.0791625976563	50.09420394897462	-884.6071777343752	-253.5971069335938	34.65301513671876	-939.1145019531252	-361.2791137695313	800.846862792969	-621.1766967773439	-324.6646728515626	745.4999389648439	-623.6768188476564	-291.4194335937501	747.6465454101564	-627.9873657226564	-350.4814758300782	669.1613769531251	-648.2618408203126	-327.3292541503907	522.0941162109376	-670.3097534179689	-328.4922790527344	515.7584838867189	-800.3459472656252	-291.6899108886719	362.4245300292969	-766.1260986328126	-313.5251770019532	278.4553527832032	-700.3816528320314	-291.3635253906251	277.9880371093751	-743.8229980468751	-311.5235290527344	234.7089538574219	-776.3186645507815	-364.2356567382813	103.4456024169922	-725.1824340820314	-356.5073242187501	128.9021453857422	-811.9147949218752	-433.7668457031251	83.03730773925783	-782.0908813476565	-209.4026184082032	55.87990188598634	-789.5671386718752	-210.3820495605469	54.17845153808595	-747.9833374023439	-255.3290710449219	35.95986557006837	-701.8130493164064	
173	0.86	-239.7556915283204	1696.053955078125	-832.1755371093752	-374.1565856933594	1670.507202148438	-863.4968261718752	-404.4255981445314	1653.112060546875	-731.3114624023439	-436.9999084472657	1545.0498046875	-797.8293457031252	-460.7488403320314	1204.33740234375	-796.4816894531252	-310.4210510253907	1466.769775390625	-792.8190917968752	-333.9431152343751	1506.261962890625	-943.610046386719	-242.6289978027344	1428.64111328125	-1028.563598632813	-203.9003906250001	1453.398071289063	-1007.514038085938	-177.9718933105469	1404.588256835938	-1033.497802734375	-72.84154510498048	1386.231079101563	-1032.286499023438	-73.92745208740236	1335.769409179688	-981.917907714844	179.9479064941407	1444.787231445313	-918.4187011718752	185.7116851806641	1433.130981445313	-991.6746826171877	259.4625244140626	1462.546020507813	-911.082702636719	-336.0299987792969	1501.5009765625	-645.7897338867189	-237.5251464843751	1406.34619140625	-551.0195922851564	-200.0624542236329	1432.616333007813	-565.8267211914064	-172.6063385009766	1383.634765625	-544.7723999023439	-79.65579986572267	1374.19580078125	-545.5018310546876	-79.25962066650392	1321.584228515625	-609.1878051757814	172.2136993408203	1423.334594726563	-657.8295898437501	180.3752899169922	1428.840698242188	-582.4699707031251	259.1748962402344	1453.897827148438	-660.0122070312501	-284.2803955078126	1061.033325195313	-929.203308105469	-279.1416625976563	1039.806030273438	-675.7629394531251	-469.0597229003907	1101.767578125	-793.1418457031252	-481.0324707031251	1074.305297851563	-823.1447753906252	-482.7577514648439	1068.5439453125	-767.0073242187501	-300.7746276855469	736.7219848632814	-988.4915771484377	-261.8692016601563	662.7972412109376	-972.677429199219	-221.5869750976563	669.3630371093751	-944.1533203125002	-287.0997314453126	609.5513305664064	-967.236511230469	-288.4965209960938	548.5512695312501	-968.2462158203127	-289.8242492675782	542.5375976562501	-830.7192993164065	-260.1913146972657	347.5539550781251	-916.882019042969	-324.7806091308594	313.8244018554688	-965.2081298828127	-284.2072753906251	302.0308227539063	-947.3735351562502	-293.2669372558594	224.8123016357422	-911.9105224609377	-371.6904296875001	116.5137023925782	-931.930358886719	-357.0534667968751	141.8966064453125	-849.9877929687502	-434.322723388672	98.411491394043	-889.5838012695315	-217.3452606201172	54.54022598266603	-845.492370605469	-216.0365295410157	50.22378158569337	-884.496032714844	-253.5748291015626	34.80923080444337	-938.9707641601565	-361.4397583007813	800.6657714843752	-620.7534179687501	-324.7539367675782	745.3971557617189	-623.3821411132814	-291.5383300781251	747.5760498046876	-627.6472778320314	-350.4810485839844	669.0403442382814	-647.8862915039064	-327.2917480468751	521.9165649414064	-669.9813842773439	-328.2810058593751	515.5719604492189	-799.875915527344	-291.7557373046876	362.3363952636719	-766.0415649414064	-313.3387756347657	278.3296508789063	-700.2145996093751	-291.2242736816407	277.9162902832032	-743.7342529296876	-311.5880126953126	234.6299285888672	-776.2995605468752	-364.2402038574219	103.3594665527344	-725.1511840820314	-356.5523681640626	128.8366088867188	-811.849548339844	-433.7271728515626	82.93826293945314	-782.0191650390627	-209.3899841308594	55.82686233520509	-789.564392089844	-210.4059295654297	54.17353820800783	-747.9287109375001	-255.2966003417969	35.91467666625977	-701.8067626953126	
